<svg id="Component_22_6" data-name="Component 22 – 6" xmlns="http://www.w3.org/2000/svg" width="19.796" height="23.001" viewBox="0 0 19.796 23.001">
  <path id="Path_15830" data-name="Path 15830" d="M225.214,397.721a.1.1,0,0,0-.013.033,3.919,3.919,0,0,1-.2,1.014,15.984,15.984,0,0,1-.775,1.984c-.606,1.335-1.3,2.626-2.018,3.9-.114.2-.228.4-.349.6a.41.41,0,0,1-.671.049.8.8,0,0,1-.071-.108q-.787-1.349-1.5-2.738c-.436-.849-.852-1.708-1.21-2.594a11.767,11.767,0,0,1-.483-1.41,3.447,3.447,0,0,1,.608-3.044,3.6,3.6,0,0,1,2.337-1.448c.139-.026.282-.031.423-.047.03,0,.059-.01.089-.016h.241c.033.005.066.012.1.015.141.015.284.021.423.046a3.642,3.642,0,0,1,2.2,1.268,3.531,3.531,0,0,1,.862,2.181.421.421,0,0,0,.014.071Zm-3.711-2.164a2.06,2.06,0,1,0,2.059,2.063A2.063,2.063,0,0,0,221.5,395.557Z" transform="translate(-205.418 -393.899)" fill="#e4002b"/>
  <path id="Path_15831" data-name="Path 15831" d="M193.953,393.9c.082.012.164.022.245.035a2.062,2.062,0,1,1-.829.033c.107-.027.219-.035.328-.052.023,0,.047-.01.07-.016Z" transform="translate(-190.152 -393.899)" fill="#d90020" opacity="0.24"/>
  <path id="Path_15832" data-name="Path 15832" d="M191.5,407.733l.328-.75c.116-.266.234-.531.349-.8a.417.417,0,0,1,.427-.277,1.994,1.994,0,0,1,1.368.574,2.262,2.262,0,0,1,.7,1.409c.077.651.149,1.3.223,1.953q.1.852.2,1.7c.044.384.092.767.13,1.151a1.364,1.364,0,0,1-.416,1.171,1.172,1.172,0,0,1-.717.333l-.042.007a.49.49,0,0,0-.012.061q-.036.462-.071.925-.043.578-.086,1.156-.032.421-.062.842-.043.587-.087,1.174-.031.426-.061.851-.04.55-.081,1.1a.726.726,0,0,1-.021.137.42.42,0,0,1-.374.3h-3.293a.507.507,0,0,1-.137-.019.4.4,0,0,1-.3-.368c-.027-.354-.052-.709-.078-1.064q-.051-.694-.1-1.387c-.027-.367-.053-.734-.08-1.1q-.043-.578-.086-1.156c-.021-.287-.042-.573-.063-.86-.014-.194-.029-.388-.044-.588-.048-.007-.093-.012-.138-.021a1.274,1.274,0,0,1-1-.945,1.519,1.519,0,0,1-.035-.651c.061-.478.111-.958.166-1.437q.088-.774.178-1.547c.059-.516.118-1.031.173-1.548a2.675,2.675,0,0,1,.238-.919,2.139,2.139,0,0,1,1.375-1.172,1.8,1.8,0,0,1,.476-.067.415.415,0,0,1,.427.278q.293.706.585,1.413C191.454,407.637,191.472,407.675,191.5,407.733Z" transform="translate(-187.801 -400.952)" fill="#d90020"/>
  <path id="Path_15833" data-name="Path 15833" d="M209.239,429.6a.411.411,0,0,1-.416-.484,1.375,1.375,0,0,1,.041-.152c.142-.473.286-.946.465-1.407.011-.028.022-.057.035-.086a.413.413,0,0,1,.767.3c-.1.28-.2.558-.293.839-.075.226-.141.454-.21.682a.407.407,0,0,1-.307.292.314.314,0,0,1-.083.011Z" transform="translate(-200.146 -409.475)" fill="#e4002b"/>
  <path id="Path_15834" data-name="Path 15834" d="M214.038,421.757a.39.39,0,0,1-.231.32,3.521,3.521,0,0,0-.6.4,3.594,3.594,0,0,0-.5.51.4.4,0,0,1-.412.152.408.408,0,0,1-.244-.652,4.713,4.713,0,0,1,.4-.44,3.981,3.981,0,0,1,.966-.7.422.422,0,0,1,.322-.041A.428.428,0,0,1,214.038,421.757Z" transform="translate(-201.995 -405.99)" fill="#e4002b"/>
  <path id="Path_15835" data-name="Path 15835" d="M206.618,434.688a.422.422,0,0,1,.382.592,4.663,4.663,0,0,1-.533.941,3.34,3.34,0,0,1-.477.529.411.411,0,0,1-.557,0,.416.416,0,0,1-.006-.611,5.069,5.069,0,0,0,.361-.4,3.548,3.548,0,0,0,.446-.778.4.4,0,0,1,.184-.212A1.617,1.617,0,0,1,206.618,434.688Z" transform="translate(-198.078 -413.86)" fill="#e4002b"/>
  <path id="Path_15836" data-name="Path 15836" d="M219.978,419.876a.428.428,0,0,1,.46.431.4.4,0,0,1-.329.394c-.118.02-.24.021-.359.033-.153.016-.307.034-.46.055a.418.418,0,0,1-.4-.131.391.391,0,0,1-.083-.406.382.382,0,0,1,.321-.275C219.413,419.938,219.7,419.909,219.978,419.876Z" transform="translate(-206.003 -405.159)" fill="#e4002b"/>
</svg>
