<svg id="Component_20_6" data-name="Component 20 – 6" xmlns="http://www.w3.org/2000/svg" width="23.791" height="23.791" viewBox="0 0 23.791 23.791">
  <g id="Group_2123" data-name="Group 2123">
    <g id="Group_2120" data-name="Group 2120" transform="translate(0.206 0.206)" opacity="0.68">
      <path id="Path_15824" data-name="Path 15824" d="M206.144,259.984a11.783,11.783,0,1,0,3.456,8.337A11.7,11.7,0,0,0,206.144,259.984Zm2.388,7.807h-4.573a20.441,20.441,0,0,0-.746-5.126,11.689,11.689,0,0,0,2.431-1.675A10.71,10.71,0,0,1,208.531,267.791Zm-3.648-7.537a10.727,10.727,0,0,1-2,1.391,12.274,12.274,0,0,0-.621-1.444,8.489,8.489,0,0,0-1.55-2.214A10.694,10.694,0,0,1,204.883,260.253Zm-6.546-2.5c1.1.245,2.142,1.261,2.98,2.917a12.011,12.011,0,0,1,.606,1.43,10.808,10.808,0,0,1-3.586.8Zm-1.054,0v5.15a10.78,10.78,0,0,1-3.586-.8,12.012,12.012,0,0,1,.606-1.43C195.141,259.012,196.181,258,197.283,257.75Zm-2.373.236a8.558,8.558,0,0,0-1.55,2.214,14.2,14.2,0,0,0-.621,1.444,10.89,10.89,0,0,1-2-1.391A10.688,10.688,0,0,1,194.91,257.986Zm-4.934,3a11.875,11.875,0,0,0,2.431,1.675,20.285,20.285,0,0,0-.746,5.126h-4.573A10.71,10.71,0,0,1,189.976,260.99Zm-2.888,7.86h4.573a20.462,20.462,0,0,0,.755,5.155A11.607,11.607,0,0,0,190,275.67,10.693,10.693,0,0,1,187.089,268.85Zm3.668,7.557a10.762,10.762,0,0,1,1.993-1.381,13.025,13.025,0,0,0,.611,1.415,8.587,8.587,0,0,0,1.55,2.219A10.736,10.736,0,0,1,190.756,276.406Zm6.526,2.484c-1.1-.245-2.142-1.261-2.979-2.917a12.37,12.37,0,0,1-.6-1.4,10.619,10.619,0,0,1,3.576-.8Zm.585-6.539a1.849,1.849,0,0,1-.585-.069v.433a11.66,11.66,0,0,0-3.9.847,19.357,19.357,0,0,1-.669-4.712h.762c0-.056,0-.111,0-.168a2.657,2.657,0,0,1,.088-.679c.02-.072.044-.142.07-.212h-.923a19.384,19.384,0,0,1,.659-4.683,11.7,11.7,0,0,0,3.9.847v.467l.534-.072a1.858,1.858,0,0,1,.529.055v-.44a11.923,11.923,0,0,0,3.9-.852,19.364,19.364,0,0,1,.659,4.683h-.689a1.824,1.824,0,0,1,.109.705v.06a2.382,2.382,0,0,1-.018.289h.6a19.379,19.379,0,0,1-.669,4.712,11.9,11.9,0,0,0-3.9-.847v-.427Zm.474,6.539v-5.116a10.73,10.73,0,0,1,3.576.8,12.364,12.364,0,0,1-.6,1.4C200.483,277.629,199.444,278.645,198.342,278.89Zm2.373-.236a8.505,8.505,0,0,0,1.55-2.219,13.019,13.019,0,0,0,.611-1.415,10.749,10.749,0,0,1,1.993,1.382A10.623,10.623,0,0,1,200.714,278.654Zm4.919-2.985A11.772,11.772,0,0,0,203.212,274a20.479,20.479,0,0,0,.756-5.155h4.572A10.741,10.741,0,0,1,205.633,275.67Z" transform="translate(-186.015 -256.528)" fill="#e4002b" opacity="0.24"/>
      <path id="Path_15825" data-name="Path 15825" d="M233.567,302.925" transform="translate(-213.949 -283.783)" fill="#e4002b" opacity="0.24"/>
    </g>
    <g id="Group_2122" data-name="Group 2122">
      <g id="Group_2121" data-name="Group 2121">
        <path id="Path_15826" data-name="Path 15826" d="M205.644,259.484a11.782,11.782,0,1,0,3.456,8.337A11.7,11.7,0,0,0,205.644,259.484Zm2.388,7.807h-4.573a20.44,20.44,0,0,0-.746-5.126,11.69,11.69,0,0,0,2.431-1.675A10.71,10.71,0,0,1,208.031,267.291Zm-3.648-7.537a10.728,10.728,0,0,1-2,1.391,12.274,12.274,0,0,0-.621-1.444,8.489,8.489,0,0,0-1.55-2.214A10.694,10.694,0,0,1,204.383,259.753Zm-6.546-2.5c1.1.245,2.142,1.261,2.98,2.917a12.009,12.009,0,0,1,.606,1.43,10.808,10.808,0,0,1-3.586.8Zm-1.054,0v5.15a10.781,10.781,0,0,1-3.586-.8,12.01,12.01,0,0,1,.606-1.43C194.641,258.512,195.681,257.5,196.783,257.25Zm-2.373.236a8.558,8.558,0,0,0-1.55,2.214,14.193,14.193,0,0,0-.621,1.444,10.89,10.89,0,0,1-2-1.391A10.688,10.688,0,0,1,194.41,257.486Zm-4.934,3a11.877,11.877,0,0,0,2.431,1.675,20.285,20.285,0,0,0-.746,5.126h-4.572A10.71,10.71,0,0,1,189.476,260.49Zm-2.888,7.86h4.572a20.462,20.462,0,0,0,.755,5.155,11.607,11.607,0,0,0-2.421,1.665A10.693,10.693,0,0,1,186.589,268.35Zm3.668,7.557a10.762,10.762,0,0,1,1.993-1.381,13.025,13.025,0,0,0,.611,1.415,8.587,8.587,0,0,0,1.55,2.219A10.736,10.736,0,0,1,190.256,275.906Zm6.526,2.484c-1.1-.245-2.142-1.261-2.979-2.917a12.367,12.367,0,0,1-.6-1.4,10.619,10.619,0,0,1,3.576-.8Zm.585-6.539a1.849,1.849,0,0,1-.585-.069v.433a11.66,11.66,0,0,0-3.9.847,19.358,19.358,0,0,1-.669-4.712h.762c0-.056,0-.111,0-.168a2.657,2.657,0,0,1,.088-.679c.02-.072.044-.142.07-.212h-.923a19.384,19.384,0,0,1,.659-4.683,11.7,11.7,0,0,0,3.9.847v.467l.534-.072a1.858,1.858,0,0,1,.529.055v-.44a11.924,11.924,0,0,0,3.9-.852,19.364,19.364,0,0,1,.659,4.683h-.689a1.825,1.825,0,0,1,.109.705v.06a2.382,2.382,0,0,1-.018.289h.6a19.378,19.378,0,0,1-.669,4.712,11.9,11.9,0,0,0-3.9-.847v-.427Zm.474,6.539v-5.116a10.73,10.73,0,0,1,3.576.8,12.364,12.364,0,0,1-.6,1.4C199.983,277.129,198.944,278.145,197.842,278.39Zm2.373-.236a8.5,8.5,0,0,0,1.55-2.219,13.022,13.022,0,0,0,.611-1.415,10.749,10.749,0,0,1,1.993,1.382A10.623,10.623,0,0,1,200.214,278.154Zm4.919-2.985a11.772,11.772,0,0,0-2.421-1.665,20.478,20.478,0,0,0,.756-5.155h4.572A10.741,10.741,0,0,1,205.133,275.17Z" transform="translate(-185.515 -256.028)" fill="#e4002b" opacity="0.24"/>
        <path id="Path_15827" data-name="Path 15827" d="M233.067,302.425" transform="translate(-213.449 -283.283)" fill="#e4002b" opacity="0.24"/>
      </g>
    </g>
  </g>
  <g id="Group_2124" data-name="Group 2124" transform="translate(7.743 7.667)">
    <path id="Path_15828" data-name="Path 15828" d="M211.685,275.7a4.183,4.183,0,0,0-2.946-1.092,4.4,4.4,0,0,0-3.153,1.242,4.1,4.1,0,0,0-1.3,3.093A4.23,4.23,0,0,0,205.522,282a4.449,4.449,0,0,0,3.344,1.278,6.261,6.261,0,0,0,2.487-.521.527.527,0,1,0-.413-.97,5.234,5.234,0,0,1-2.075.456,3.185,3.185,0,0,1-2.5-.983,3.335,3.335,0,0,1-.884-2.3,3.284,3.284,0,0,1,.947-2.4,3.135,3.135,0,0,1,2.324-.962,3.087,3.087,0,0,1,2.146.79,2.565,2.565,0,0,1,.875,1.989,2.242,2.242,0,0,1-.4,1.364,1.085,1.085,0,0,1-.832.544c-.156,0-.234-.083-.234-.251a4.671,4.671,0,0,1,.03-.479l.329-2.688h-1.131l-.073.264a1.467,1.467,0,0,0-.947-.354,1.812,1.812,0,0,0-1.4.65,2.738,2.738,0,0,0-.066,3.287,1.569,1.569,0,0,0,1.243.614,1.408,1.408,0,0,0,1.11-.545,1.149,1.149,0,0,0,1.023.521,2.176,2.176,0,0,0,1.718-.866,3.147,3.147,0,0,0,.724-2.087,3.461,3.461,0,0,0-1.186-2.642Zm-2.6,4.067a.877.877,0,0,1-.716.4.516.516,0,0,1-.456-.3,1.436,1.436,0,0,1-.175-.739,1.455,1.455,0,0,1,.244-.88.728.728,0,0,1,.6-.336.754.754,0,0,1,.557.251.921.921,0,0,1,.244.67,1.53,1.53,0,0,1-.3.926Zm0,0" transform="translate(-204.283 -274.611)" fill="#e4002b"/>
  </g>
</svg>
