<svg xmlns="http://www.w3.org/2000/svg" width="18.796" height="11.281" viewBox="0 0 18.796 11.281">
  <path id="Icon_awesome-handshake" data-name="Icon awesome-handshake" d="M12.766,4.5H10.244a.939.939,0,0,0-.634.247L6.722,7.39,6.714,7.4a1.168,1.168,0,0,0-.062,1.645A1.225,1.225,0,0,0,8.3,9.125s.009,0,.012-.006l2.347-2.15a.47.47,0,1,1,.634.693l-.767.7L14.8,11.836a2.116,2.116,0,0,1,.232.226V6.38l-1.6-1.6A.933.933,0,0,0,12.766,4.5Zm3.21,1.885v6.576a.939.939,0,0,0,.94.94H18.8V6.385Zm1.41,6.576a.47.47,0,1,1,.47-.47A.471.471,0,0,1,17.386,12.961ZM0,13.9H1.88a.939.939,0,0,0,.94-.94V6.385H0Zm1.41-1.877a.47.47,0,1,1-.47.47A.471.471,0,0,1,1.41,12.021Zm12.8.546L9.827,9.008l-.881.808A2.114,2.114,0,1,1,6.088,6.7l2.4-2.2H6.029a.938.938,0,0,0-.664.276L3.759,6.38v6.576H4.3L6.954,15.36A1.879,1.879,0,0,0,9.6,15.087l.006-.006.526.455a1.091,1.091,0,0,0,1.536-.159l.922-1.134.159.129a.938.938,0,0,0,1.322-.138l.279-.344a.941.941,0,0,0-.135-1.325Z" transform="translate(0 -4.5)" fill="#e4002b"/>
</svg>
