<svg xmlns="http://www.w3.org/2000/svg" width="13.406" height="19.5" viewBox="0 0 13.406 19.5">
  <path id="Icon_awesome-lightbulb" data-name="Icon awesome-lightbulb" d="M3.658,17.3a1.219,1.219,0,0,0,.2.674l.651.978a1.218,1.218,0,0,0,1.015.544h2.35a1.218,1.218,0,0,0,1.015-.544l.651-.978a1.218,1.218,0,0,0,.2-.674l0-1.461H3.657l0,1.461ZM0,6.7a6.666,6.666,0,0,0,1.659,4.41A10.945,10.945,0,0,1,3.647,14.6l0,.03h6.1l0-.03a10.945,10.945,0,0,1,1.988-3.483A6.7,6.7,0,1,0,0,6.7ZM6.7,3.656A3.05,3.05,0,0,0,3.656,6.7a.609.609,0,1,1-1.219,0A4.27,4.27,0,0,1,6.7,2.437a.609.609,0,1,1,0,1.219Z" transform="translate(0 0)" fill="#e4002b"/>
</svg>
