<svg id="Component_21_2" data-name="Component 21 – 2" xmlns="http://www.w3.org/2000/svg" width="26" height="14.593" viewBox="0 0 26 14.593">
  <path id="Path_15837" data-name="Path 15837" d="M187.661,539.794a.378.378,0,0,1-.4-.4V539a1.327,1.327,0,0,0-.679-1.158l-2.757-1.519-2.757,1.519a1.3,1.3,0,0,0-.679,1.158v.4a.4.4,0,0,1-.8,0V539a2.121,2.121,0,0,1,1.119-1.878l2.957-1.638a.364.364,0,0,1,.4,0l2.957,1.638A2.121,2.121,0,0,1,188.141,539v.4A.506.506,0,0,1,187.661,539.794Z" transform="translate(-179.55 -527.547)" fill="#d90020"/>
  <path id="Path_15839" data-name="Path 15839" d="M228.8,542.692H221.09a.377.377,0,0,1-.4-.4v-2.357a2.122,2.122,0,0,1,1.118-1.878l2.957-1.638a.363.363,0,0,1,.4,0l2.957,1.638a4.122,4.122,0,0,1,1.531,1.878v2.357C229.2,542.492,229,542.692,228.8,542.692Zm-7.312-.8H228.4v-1.958a1.327,1.327,0,0,0-.68-1.159l-2.757-1.518-2.757,1.518a1.3,1.3,0,0,0-.679,1.159v1.958Z" transform="translate(-203.694 -528.099)" fill="#d90020"/>
  <path id="Path_15841" data-name="Path 15841" d="M229.859,540.637a.377.377,0,0,1-.4-.4v-.4a1.328,1.328,0,0,0-.68-1.159l-2.757-1.518-2.757,1.518a1.3,1.3,0,0,0-.679,1.159v.4a.4.4,0,1,1-.8,0v-.4a2.122,2.122,0,0,1,1.118-1.878l2.957-1.638a.365.365,0,0,1,.4,0l2.957,1.638a2.122,2.122,0,0,1,1.118,1.878v.4A.544.544,0,0,1,229.859,540.637Z" transform="translate(-204.338 -528.042)" fill="#d90020"/>
  <path id="Path_15842" data-name="Path 15842" d="M230.127,529.823c0,1.319-.879,2.8-1.958,2.8s-1.958-1.478-1.958-2.8a1.958,1.958,0,1,1,3.916,0Z" transform="translate(-206.937 -524.11)" fill="#d90020"/>
  <path id="Path_15845" data-name="Path 15845" d="M187.6,541.849h-7.712a.378.378,0,0,1-.4-.4v-2.357a2.122,2.122,0,0,1,1.119-1.878l2.957-1.638a.364.364,0,0,1,.4,0l2.957,1.638a2.121,2.121,0,0,1,1.119,1.878v2.357A.47.47,0,0,1,187.6,541.849Zm-7.312-.8H187.2v-1.958a1.329,1.329,0,0,0-.679-1.159l-2.757-1.518-2.757,1.518a1.3,1.3,0,0,0-.679,1.159v1.958Z" transform="translate(-179.493 -527.604)" fill="#d90020"/>
  <path id="Path_15846" data-name="Path 15846" d="M180.4,540.436v.4" transform="translate(-180.026 -528.64)" fill="#d90020" opacity="0.24"/>
  <path id="Path_15847" data-name="Path 15847" d="M188.772,530.327c0,1.319-.879,2.8-1.958,2.8s-1.958-1.479-1.958-2.8a1.958,1.958,0,0,1,3.916,0Z" transform="translate(-182.643 -524.406)" fill="#d90020"/>
  <path id="Path_15849" data-name="Path 15849" d="M208.423,539.072v3.476H197.834v-3.476a2.346,2.346,0,0,1,2.357-2.277,3.659,3.659,0,0,0,2.957,1.6,3.609,3.609,0,0,0,2.957-1.6A2.337,2.337,0,0,1,208.423,539.072Z" transform="translate(-190.267 -528.355)" fill="#d90020"/>
  <path id="Path_15850" data-name="Path 15850" d="M207.854,542.379H197.265a.377.377,0,0,1-.4-.4V538.5a2.765,2.765,0,0,1,2.717-2.677.389.389,0,0,1,.359.16,3.148,3.148,0,0,0,5.234,0,.39.39,0,0,1,.36-.16,2.766,2.766,0,0,1,2.717,2.677v3.476A.378.378,0,0,1,207.854,542.379Zm-10.189-.8h9.789V538.5a1.968,1.968,0,0,0-1.758-1.878,3.974,3.974,0,0,1-3.117,1.558,3.917,3.917,0,0,1-3.117-1.558,1.937,1.937,0,0,0-1.758,1.878v3.077Z" transform="translate(-189.698 -527.786)" fill="#d90020"/>
  <path id="Path_15851" data-name="Path 15851" d="M201.321,543.442V541.4a.76.76,0,0,1,.4-.639,4.9,4.9,0,0,0,3.436,1.4,5.007,5.007,0,0,0,3.436-1.4.815.815,0,0,1,.4.639v2.038Z" transform="translate(-192.315 -530.687)" fill="#d90020"/>
  <path id="Path_15852" data-name="Path 15852" d="M206.264,524.3c-1.758,0-3.236-1.8-3.236-3.956s1.438-3.956,3.236-3.956,3.237,1.8,3.237,3.956S208.023,524.3,206.264,524.3Zm0-7.112c-1.319,0-2.437,1.439-2.437,3.157,0,1.758,1.079,3.157,2.437,3.157s2.437-1.438,2.437-3.157C208.662,518.586,207.583,517.187,206.264,517.187Z" transform="translate(-193.318 -516.368)" fill="#d90020"/>
  <path id="Path_15853" data-name="Path 15853" d="M208.969,518.145c-.16-1.319-2.717-2.437-4.915-1.4a1.9,1.9,0,0,0-1.239,1.4s-.879.559.32,3.036c0,0-.28-.6.6-1.238,0,0-.4-1.159.72-1.159a2.957,2.957,0,0,0,1.478.36,3.472,3.472,0,0,0,1.478-.36c1.119,0,.72,1.159.72,1.159.879.6.6,1.238.6,1.238C209.848,518.7,208.969,518.145,208.969,518.145Z" transform="translate(-193.011 -516.339)" fill="#d90020"/>
</svg>
