<svg xmlns="http://www.w3.org/2000/svg" viewBox="0 0 34 34"><defs><style>.cls-1{fill:none;}.cls-2{fill:#e4002b;}</style></defs><g id="Layer_2" data-name="Layer 2"><g id="Layer_1-2" data-name="Layer 1"><rect class="cls-1" width="34" height="34"/><path class="cls-2" d="M7.9,22.25H5.2A1.32,1.32,0,0,1,3.9,21v-1.3a2.65,2.65,0,0,1,2.6-2.6H9.1a2.33,2.33,0,0,1,1.8.8A5.5,5.5,0,0,0,7.9,22.25Zm-2.7-9.2a2.65,2.65,0,0,1,2.6-2.6,2.65,2.65,0,0,1,2.6,2.6,2.6,2.6,0,0,1-5.2,0Zm19.7,10v1.2a2,2,0,0,1-2,2H11.1a2,2,0,0,1-2-2v-1.2a4.68,4.68,0,0,1,4.68-4.7h.32a6.81,6.81,0,0,0,2.8.7,5.28,5.28,0,0,0,2.8-.7H20a4.67,4.67,0,0,1,4.89,4.45A2.18,2.18,0,0,1,24.9,23.05ZM12.4,12.35a4.6,4.6,0,0,1,9.2,0A4.65,4.65,0,0,1,17,17a4.6,4.6,0,0,1-4.6-4.58Zm17.7,7.3V21a1.32,1.32,0,0,1-1.3,1.3H26.1a6.12,6.12,0,0,0-3.1-4.5,2.53,2.53,0,0,1,1.8-.8h2.6a2.68,2.68,0,0,1,2.7,2.68Zm-6.5-6.6a2.6,2.6,0,1,1,2.6,2.6A2.6,2.6,0,0,1,23.6,13.05Z"/></g></g></svg>