<svg xmlns="http://www.w3.org/2000/svg" viewBox="0 0 70 34"><defs><style>.cls-1{fill:#e4002b;}.cls-2,.cls-3{fill:#d90020;}.cls-2{opacity:0.24;isolation:isolate;}.cls-4{fill:none;}</style></defs><g id="Layer_2" data-name="Layer 2"><g id="Layer_1-2" data-name="Layer 1"><path id="Path_15830" data-name="Path 15830" class="cls-1" d="M44.88,9.32v0a3.93,3.93,0,0,1-.2,1,16,16,0,0,1-.77,2c-.61,1.33-1.3,2.62-2,3.9l-.35.6A.42.42,0,0,1,41,17a.52.52,0,0,1-.11-.1.61.61,0,0,1-.07-.1c-.53-.9-1-1.82-1.5-2.74s-.85-1.71-1.21-2.6a13.82,13.82,0,0,1-.49-1.41,3.46,3.46,0,0,1,.61-3,3.65,3.65,0,0,1,2.34-1.45l.42,0,.09,0h.34l.43,0A3.7,3.7,0,0,1,44,6.83,3.58,3.58,0,0,1,44.88,9a.17.17,0,0,0,0,.07ZM41.17,7.16a2.06,2.06,0,1,0,2.06,2.06,2.06,2.06,0,0,0-2.06-2.06Z"/><path id="Path_15831" data-name="Path 15831" class="cls-2" d="M28.89,5.5l.24,0a2.06,2.06,0,1,1-2.36,1.7,2,2,0,0,1,1.54-1.67,3.06,3.06,0,0,1,.32-.05l.07,0Z"/><path id="Path_15832" data-name="Path 15832" class="cls-3" d="M28.79,12.28l.33-.75c.11-.26.23-.53.34-.8a.41.41,0,0,1,.43-.27,2,2,0,0,1,1.37.57,2.3,2.3,0,0,1,.7,1.41c.08.65.15,1.3.22,2s.14,1.14.2,1.7c0,.39.09.77.13,1.15a1.34,1.34,0,0,1-.41,1.17,1.24,1.24,0,0,1-.72.34h0a.15.15,0,0,0,0,.07c0,.3,0,.61-.08.92l-.08,1.16-.06.84L31,22.91l-.06.85c0,.37-.06.74-.08,1.1,0,.05,0,.1,0,.14a.42.42,0,0,1-.38.3H27.19l-.14,0a.4.4,0,0,1-.3-.37c0-.35-.05-.71-.08-1.06s-.06-.93-.1-1.39-.05-.73-.08-1.1l-.08-1.15-.06-.86c0-.2,0-.39-.05-.59l-.14,0a1.28,1.28,0,0,1-1-.95,1.43,1.43,0,0,1,0-.65c.06-.48.11-1,.16-1.44l.18-1.54.18-1.55a2.65,2.65,0,0,1,.23-.92,2.18,2.18,0,0,1,1.38-1.17,1.49,1.49,0,0,1,.47-.07.42.42,0,0,1,.43.28l.59,1.41A.19.19,0,0,0,28.79,12.28Z"/><path id="Path_15833" data-name="Path 15833" class="cls-1" d="M34.18,25.63a.42.42,0,0,1-.42-.4.28.28,0,0,1,0-.09.83.83,0,0,1,0-.15c.14-.47.28-.94.46-1.41a.59.59,0,0,1,0-.08.41.41,0,0,1,.76.3c-.1.28-.2.56-.29.84l-.21.68a.4.4,0,0,1-.31.29h-.08Z"/><path id="Path_15834" data-name="Path 15834" class="cls-1" d="M37.13,21.27a.39.39,0,0,1-.23.32,3.91,3.91,0,0,0-.6.4,3.45,3.45,0,0,0-.5.51.39.39,0,0,1-.41.15.4.4,0,0,1-.32-.48.36.36,0,0,1,.07-.17,5.66,5.66,0,0,1,.4-.44,4.13,4.13,0,0,1,1-.7.4.4,0,0,1,.32,0A.42.42,0,0,1,37.13,21.27Z"/><path id="Path_15835" data-name="Path 15835" class="cls-1" d="M33.63,26.33a.42.42,0,0,1,.42.43.47.47,0,0,1,0,.16,4.55,4.55,0,0,1-.53.94,3,3,0,0,1-.48.53.4.4,0,0,1-.56,0,.42.42,0,0,1,0-.59l0,0c.12-.13.25-.26.36-.4a3.33,3.33,0,0,0,.44-.78.43.43,0,0,1,.19-.21Z"/><path id="Path_15836" data-name="Path 15836" class="cls-1" d="M39.06,20.22a.43.43,0,0,1,.46.39v0a.39.39,0,0,1-.33.39l-.35,0-.46.05A.42.42,0,0,1,38,21a.37.37,0,0,1-.09-.4.39.39,0,0,1,.32-.28Z"/><rect class="cls-4" width="70" height="34"/></g></g></svg>