<svg xmlns="http://www.w3.org/2000/svg" viewBox="0 0 34 34"><defs><style>.cls-1,.cls-3{fill:#d90020;}.cls-2{fill:#e23c4a;}.cls-3{opacity:0.24;isolation:isolate;}.cls-4{fill:none;}</style></defs><g id="Layer_2" data-name="Layer 2"><g id="Layer_1-2" data-name="Layer 1"><g id="Group_2116" data-name="Group 2116"><path id="Path_15806" data-name="Path 15806" class="cls-1" d="M27.07,26h0a2.52,2.52,0,0,1-2.52,2.52h0A2.52,2.52,0,0,1,27.07,26Z"/><path id="Path_15807" data-name="Path 15807" class="cls-1" d="M26.65,10.5h0A2.51,2.51,0,0,1,29.17,13h0A2.51,2.51,0,0,1,26.65,10.5Z"/><path id="Path_15808" data-name="Path 15808" class="cls-1" d="M8.19,23.5h0A2.52,2.52,0,0,1,5.67,26h0A2.52,2.52,0,0,1,8.19,23.5Z"/></g><path id="Path_15809" data-name="Path 15809" class="cls-2" d="M18.24,28.54,17.84,16H16.16l-.41,12.59H13.22v.84h7.56v-.84Z"/><path id="Path_15810" data-name="Path 15810" class="cls-3" d="M17.88,17.37l0-1.42H16.16l0,1.42A1.65,1.65,0,0,0,17.88,17.37Z"/><g id="Group_2117" data-name="Group 2117"><path id="Path_15811" data-name="Path 15811" class="cls-3" d="M28.33,5.88h-.86a1.47,1.47,0,0,0-2.9,0h-.86a.84.84,0,0,0,0,1.68h4.62a.84.84,0,0,0,0-1.68Z"/><path id="Path_15812" data-name="Path 15812" class="cls-3" d="M12.8,8.82h-.86a1.49,1.49,0,0,0,0-.21,1.88,1.88,0,0,0-3.5-1,1.43,1.43,0,0,0-1.85.86,1.55,1.55,0,0,0-.07.31H5.68a.84.84,0,1,0,0,1.67h7.14a.84.84,0,1,0,0-1.67h0Z"/></g><g id="Group_2118" data-name="Group 2118"><path id="Path_15813" data-name="Path 15813" class="cls-3" d="M13.32,7.94,13,7.18a9.25,9.25,0,0,1,1.14-.44l.25.8A8.24,8.24,0,0,0,13.32,7.94Z"/><path id="Path_15814" data-name="Path 15814" class="cls-3" d="M7.71,18.58A9.7,9.7,0,0,1,7.35,16,9.47,9.47,0,0,1,8.4,11.56l.75.39a8.55,8.55,0,0,0-1,4,8.85,8.85,0,0,0,.33,2.4Z"/><path id="Path_15815" data-name="Path 15815" class="cls-3" d="M14.81,25.35a9.76,9.76,0,0,1-5.26-3.26l.65-.53a8.89,8.89,0,0,0,4.8,3Z"/><path id="Path_15816" data-name="Path 15816" class="cls-3" d="M19.19,25.35,19,24.54a8.85,8.85,0,0,0,5.11-3.38l.67.5a9.66,9.66,0,0,1-5.59,3.7Z"/><path id="Path_15817" data-name="Path 15817" class="cls-3" d="M26.4,18.14,25.58,18a8.89,8.89,0,0,0,.23-2A8.8,8.8,0,0,0,18.6,7.29l.15-.83a9.65,9.65,0,0,1,7.73,11.26h0C26.46,17.87,26.43,18,26.4,18.14Z"/><path id="Path_15818" data-name="Path 15818" class="cls-3" d="M9.22,17.72a8,8,0,0,1,1.15-6.2l.7.47a7.1,7.1,0,0,0-1,5.54Z"/><path id="Path_15819" data-name="Path 15819" class="cls-3" d="M14.78,23.61a8.05,8.05,0,0,1-3.3-1.9l.58-.61a7.16,7.16,0,0,0,3,1.7Z"/><path id="Path_15820" data-name="Path 15820" class="cls-3" d="M19.21,23.61,19,22.8a7.1,7.1,0,0,0,3.57-2.37l.65.53A8,8,0,0,1,19.21,23.61Z"/><path id="Path_15821" data-name="Path 15821" class="cls-3" d="M24.92,16.83l-.83-.09a7,7,0,0,0,0-.79,7.09,7.09,0,0,0-5.55-7l.19-.82A7.93,7.93,0,0,1,25,16a8.65,8.65,0,0,1,0,.88Z"/></g><path id="Path_15822" data-name="Path 15822" class="cls-2" d="M26.13,20.05a12.61,12.61,0,0,0-7.87-4.81s0-.06,0-.08l0-.14a.36.36,0,0,0,0-.09.47.47,0,0,0,0-.1L18,14.67l-.06-.07a.94.94,0,0,0-.1-.1l0,0a1.35,1.35,0,0,0-.46-.24V5.15a.5.5,0,0,0-.51-.52.5.5,0,0,0-.48.32,12.84,12.84,0,0,0-.11,9.5.91.91,0,0,0-.2.19l0,0a1.37,1.37,0,0,0-.13.2l0,.06a1.19,1.19,0,0,0-.08.2.19.19,0,0,0,0,.07,1.55,1.55,0,0,0,0,.29s0,.07,0,.1L8,20.07a.52.52,0,0,0-.19.71.49.49,0,0,0,.51.26,12.62,12.62,0,0,0,8-4.41l.23.1.09,0,.09,0a.75.75,0,0,0,.21,0,1.1,1.1,0,0,0,.26,0l.21-.07h0a1.39,1.39,0,0,0,.41-.27l7.56,4.4a.51.51,0,0,0,.7-.18h0a.53.53,0,0,0,0-.58Z"/><rect class="cls-4" width="34" height="34"/></g></g></svg>