<svg xmlns="http://www.w3.org/2000/svg" width="27" height="21.375" viewBox="0 0 27 21.375">
  <g id="Icon_ionic-ios-list" data-name="Icon ionic-ios-list" transform="translate(-4.5 -7.313)">
    <path id="Path_15765" data-name="Path 15765" d="M8.438,18a1.969,1.969,0,1,1-1.969-1.969A1.969,1.969,0,0,1,8.438,18Z"/>
    <path id="Path_15766" data-name="Path 15766" d="M8.438,9.281A1.969,1.969,0,1,1,6.469,7.313,1.969,1.969,0,0,1,8.438,9.281Z"/>
    <path id="Path_15767" data-name="Path 15767" d="M8.438,26.719A1.969,1.969,0,1,1,6.469,24.75a1.969,1.969,0,0,1,1.969,1.969Z"/>
    <path id="Path_15768" data-name="Path 15768" d="M30.375,16.875H13.465a1.125,1.125,0,0,0,0,2.25h16.91a1.125,1.125,0,0,0,0-2.25Z"/>
    <path id="Path_15769" data-name="Path 15769" d="M30.375,25.594H13.465a1.125,1.125,0,0,0,0,2.25h16.91a1.125,1.125,0,0,0,0-2.25Z"/>
    <path id="Path_15770" data-name="Path 15770" d="M13.465,10.406h16.91a1.125,1.125,0,0,0,0-2.25H13.465a1.125,1.125,0,0,0,0,2.25Z"/>
  </g>
</svg>
