<svg xmlns="http://www.w3.org/2000/svg" viewBox="0 0 70 70"><defs><style>.cls-1{fill:none;}.cls-2{fill:#e4002b;}</style></defs><g id="Layer_2" data-name="Layer 2"><g id="Layer_1-2" data-name="Layer 1"><rect class="cls-1" width="70" height="70"/><path class="cls-2" d="M25.9,40.25H23.2A1.32,1.32,0,0,1,21.9,39v-1.3a2.65,2.65,0,0,1,2.6-2.6h2.6a2.33,2.33,0,0,1,1.8.8A5.5,5.5,0,0,0,25.9,40.25Zm-2.7-9.2a2.6,2.6,0,1,1,5.2,0,2.6,2.6,0,1,1-5.2,0Zm19.7,10v1.2a2,2,0,0,1-2,2H29.1a2,2,0,0,1-2-2v-1.2a4.68,4.68,0,0,1,4.68-4.7h.32a6.81,6.81,0,0,0,2.8.7,5.28,5.28,0,0,0,2.8-.7H38a4.67,4.67,0,0,1,4.89,4.45A2.18,2.18,0,0,1,42.9,41.05ZM30.4,30.35a4.6,4.6,0,1,1,9.2,0A4.65,4.65,0,0,1,35,35a4.6,4.6,0,0,1-4.6-4.58Zm17.7,7.3V39a1.32,1.32,0,0,1-1.3,1.3H44.1a6.12,6.12,0,0,0-3.1-4.5,2.53,2.53,0,0,1,1.8-.8h2.6a2.68,2.68,0,0,1,2.7,2.68Zm-6.5-6.6a2.6,2.6,0,1,1,2.6,2.6A2.6,2.6,0,0,1,41.6,31.05Z"/></g></g></svg>