<?xml version="1.0" encoding="utf-8"?>
<!-- Generator: Adobe Illustrator 24.1.0, SVG Export Plug-In . SVG Version: 6.00 Build 0)  -->
<svg version="1.1" id="Layer_1" xmlns="http://www.w3.org/2000/svg" xmlns:xlink="http://www.w3.org/1999/xlink" x="0px" y="0px"
	 viewBox="0 0 22.9 22.9" style="enable-background:new 0 0 22.9 22.9;" xml:space="preserve">
<path id="Icon_ionic-ios-globe" d="M11.5,0L11.5,0C5.1,0,0,5.1,0,11.5c0,6.3,5.1,11.5,11.5,11.5h0C17.8,23,23,17.9,23,11.6
	C23.1,5.2,18,0.1,11.7,0C11.6,0,11.5,0,11.5,0L11.5,0z M21.4,10.7h-4.3c0-1.4-0.2-2.8-0.5-4.2c0.9-0.3,1.9-0.7,2.7-1.2
	C20.5,6.9,21.3,8.7,21.4,10.7L21.4,10.7z M10.7,10.7H7.3c0-1.3,0.2-2.6,0.5-3.8c1,0.2,1.9,0.3,2.9,0.4L10.7,10.7z M10.7,12.2v3.4
	c-1,0-2,0.2-2.9,0.4c-0.3-1.2-0.4-2.5-0.5-3.8L10.7,12.2z M12.2,12.2h3.4c0,1.3-0.2,2.6-0.5,3.8c-1-0.2-1.9-0.3-2.9-0.4L12.2,12.2z
	 M12.2,10.7V7.3c1,0,1.9-0.2,2.9-0.4c0.3,1.2,0.4,2.5,0.5,3.8L12.2,10.7z M18.3,4.2c-0.7,0.3-1.4,0.6-2.1,0.9
	c-0.3-1.1-0.8-2.1-1.5-3C16,2.5,17.2,3.2,18.3,4.2L18.3,4.2z M14.7,5.4c-0.8,0.2-1.6,0.3-2.5,0.3v-4C13.5,2.6,14.3,4,14.7,5.4z
	 M10.7,1.7v4.1C9.9,5.7,9,5.6,8.2,5.4C8.6,3.9,9.5,2.6,10.7,1.7z M8.2,2.1C7.6,3,7.1,4,6.7,5C6,4.8,5.3,4.5,4.7,4.2
	C5.7,3.2,6.9,2.5,8.2,2.1z M3.6,5.3c0.9,0.5,1.8,0.8,2.7,1.1C6,7.9,5.8,9.3,5.8,10.7H1.5C1.7,8.7,2.4,6.9,3.6,5.3z M1.5,12.2h4.2
	c0,1.4,0.2,2.8,0.5,4.2c-0.9,0.3-1.8,0.7-2.7,1.1C2.4,16.1,1.7,14.2,1.5,12.2L1.5,12.2z M4.7,18.7c0.7-0.3,1.4-0.6,2.1-0.8
	c0.3,1.1,0.8,2.1,1.4,3C6.9,20.4,5.7,19.7,4.7,18.7L4.7,18.7z M8.2,17.5c0.8-0.2,1.7-0.3,2.5-0.3v4.1C9.5,20.3,8.6,19,8.2,17.5
	L8.2,17.5z M12.2,21.2v-4.1c0.8,0,1.7,0.2,2.5,0.3C14.3,19,13.5,20.3,12.2,21.2L12.2,21.2z M14.7,20.9c0.6-0.9,1.1-1.9,1.5-3
	c0.7,0.2,1.4,0.5,2.1,0.9C17.3,19.7,16,20.4,14.7,20.9L14.7,20.9z M19.3,17.6c-0.9-0.5-1.8-0.9-2.7-1.2c0.3-1.4,0.5-2.8,0.5-4.2h4.3
	C21.3,14.2,20.5,16.1,19.3,17.6L19.3,17.6z"/>
</svg>
