<svg xmlns="http://www.w3.org/2000/svg" width="22.943" height="22.938" viewBox="0 0 22.943 22.938">
  <path id="Icon_ionic-ios-globe" data-name="Icon ionic-ios-globe" d="M14.844,3.375h-.039a11.469,11.469,0,0,0,.006,22.938h.039a11.469,11.469,0,1,0-.006-22.937Zm9.936,10.7H20.5a21.714,21.714,0,0,0-.54-4.2A16.8,16.8,0,0,0,22.7,8.712,9.878,9.878,0,0,1,24.78,14.072Zm-10.708,0H10.664a19.6,19.6,0,0,1,.485-3.81,16.775,16.775,0,0,0,2.922.391Zm0,1.544v3.413a16.846,16.846,0,0,0-2.922.391,19.6,19.6,0,0,1-.485-3.8Zm1.544,0H19a19.483,19.483,0,0,1-.485,3.8,16.458,16.458,0,0,0-2.895-.386Zm0-1.544V10.653a16.847,16.847,0,0,0,2.895-.386,19.541,19.541,0,0,1,.485,3.8Zm6.032-6.5a15.318,15.318,0,0,1-2.1.855,11.385,11.385,0,0,0-1.461-3.005A9.978,9.978,0,0,1,21.648,7.571ZM18.1,8.823a15.518,15.518,0,0,1-2.481.331V5.106A6.681,6.681,0,0,1,18.1,8.823ZM14.072,5.084V9.148a15.25,15.25,0,0,1-2.509-.336A6.678,6.678,0,0,1,14.072,5.084Zm-2.514.353a11.475,11.475,0,0,0-1.45,2.983A15.662,15.662,0,0,1,8.04,7.571,9.828,9.828,0,0,1,11.558,5.437ZM6.987,8.718A16.464,16.464,0,0,0,9.7,9.865a20.839,20.839,0,0,0-.54,4.2H4.913A9.828,9.828,0,0,1,6.987,8.718Zm-2.079,6.9H9.153a21.658,21.658,0,0,0,.54,4.2,17.469,17.469,0,0,0-2.713,1.147A9.88,9.88,0,0,1,4.908,15.616Zm3.126,6.5a15.431,15.431,0,0,1,2.073-.849,11.515,11.515,0,0,0,1.45,2.988A10.073,10.073,0,0,1,8.034,22.116Zm3.529-1.246a15.33,15.33,0,0,1,2.509-.336V24.6A6.668,6.668,0,0,1,11.563,20.87Zm4.053,3.711V20.528a15.518,15.518,0,0,1,2.481.331A6.678,6.678,0,0,1,15.616,24.581Zm2.481-.314a11.385,11.385,0,0,0,1.461-3.005,15.066,15.066,0,0,1,2.1.86A10.092,10.092,0,0,1,18.1,24.267Zm4.6-3.3a16.8,16.8,0,0,0-2.74-1.158,21.6,21.6,0,0,0,.54-4.2H24.78A9.835,9.835,0,0,1,22.7,20.97Z" transform="translate(-3.375 -3.375)" fill="#000000"/>
</svg>
