<svg xmlns="http://www.w3.org/2000/svg" viewBox="0 0 70 34"><defs><style>.cls-1{fill:#e4002b;}.cls-2{fill:none;}</style></defs><g id="Layer_2" data-name="Layer 2"><g id="Layer_1-2" data-name="Layer 1"><path id="Icon_awesome-handshake" data-name="Icon awesome-handshake" class="cls-1" d="M38.37,11.36H35.84a.93.93,0,0,0-.63.25l-2.89,2.64h0a1.17,1.17,0,0,0-.06,1.64A1.22,1.22,0,0,0,33.9,16h0l2.35-2.15a.47.47,0,1,1,.66.67l0,0-.76.7,4.27,3.47a2.5,2.5,0,0,1,.23.23V13.24L39,11.64A.91.91,0,0,0,38.37,11.36Zm3.21,1.88v6.58a.94.94,0,0,0,.93.94H44.4V13.24ZM43,19.82a.47.47,0,1,1,.47-.47h0A.47.47,0,0,1,43,19.82Zm-17.39.94h1.88a.94.94,0,0,0,.94-.94h0V13.24H25.6ZM27,18.88a.47.47,0,1,1-.47.47.47.47,0,0,1,.47-.47Zm12.8.55-4.38-3.56-.88.8a2.11,2.11,0,1,1-2.86-3.11l2.4-2.2H31.63a.94.94,0,0,0-.66.27l-1.61,1.61v6.57h.54l2.65,2.41A1.9,1.9,0,0,0,35.2,22h0l.52.45a1.09,1.09,0,0,0,1.54-.15h0l.92-1.14.16.13a.94.94,0,0,0,1.32-.13h0l.28-.34a1,1,0,0,0-.13-1.33h0Z"/><rect class="cls-2" width="70" height="34"/></g></g></svg>