<svg xmlns="http://www.w3.org/2000/svg" viewBox="0 0 70 34"><defs><style>.cls-1{fill:#e4002b;}.cls-2{fill:none;}</style></defs><g id="Layer_2" data-name="Layer 2"><g id="Layer_1-2" data-name="Layer 1"><path id="Icon_awesome-lightbulb" data-name="Icon awesome-lightbulb" class="cls-1" d="M32,24.77a1.16,1.16,0,0,0,.21.67l.65,1a1.23,1.23,0,0,0,1,.54h2.35a1.21,1.21,0,0,0,1-.55l.65-1a1.17,1.17,0,0,0,.19-.68V23.28l-6.09,0v1.46Zm-3.7-10.58A6.62,6.62,0,0,0,30,18.59a11.19,11.19,0,0,1,2,3.48v0l6.1,0v0a11,11,0,0,1,2-3.49,6.7,6.7,0,1,0-11.75-4.36ZM35,11.11a3.05,3.05,0,0,0-3,3.06.6.6,0,0,1-.6.61.62.62,0,0,1-.62-.6h0A4.28,4.28,0,0,1,35,9.89a.61.61,0,0,1,.61.61.61.61,0,0,1-.61.61Z"/><rect class="cls-2" width="70" height="34"/></g></g></svg>