<svg xmlns="http://www.w3.org/2000/svg" viewBox="0 0 70 34"><defs><style>.cls-1,.cls-2{fill:#d90020;}.cls-2{opacity:0.24;isolation:isolate;}.cls-3{fill:none;}</style></defs><g id="Layer_2" data-name="Layer 2"><g id="Layer_1-2" data-name="Layer 1"><path id="Path_15837" data-name="Path 15837" class="cls-1" d="M30.11,22a.39.39,0,0,1-.4-.35v-.44A1.32,1.32,0,0,0,29,20l-2.76-1.52L23.52,20a1.31,1.31,0,0,0-.68,1.16v.4a.4.4,0,0,1-.8,0v-.4a2.13,2.13,0,0,1,1.12-1.88l3-1.64a.36.36,0,0,1,.4,0l3,1.64a2.1,2.1,0,0,1,1.11,1.88v.4A.5.5,0,0,1,30.11,22Z"/><path id="Path_15839" data-name="Path 15839" class="cls-1" d="M47.11,24.3H39.4a.38.38,0,0,1-.4-.36v-2.4a2.14,2.14,0,0,1,1.12-1.88l3-1.64a.36.36,0,0,1,.4,0l3,1.64A4.09,4.09,0,0,1,48,21.54V23.9C47.51,24.1,47.31,24.3,47.11,24.3Zm-7.31-.8h6.91v-2A1.32,1.32,0,0,0,46,20.38l-2.76-1.52-2.75,1.52a1.29,1.29,0,0,0-.68,1.16v2Z"/><path id="Path_15841" data-name="Path 15841" class="cls-1" d="M47.52,22.3a.39.39,0,0,1-.4-.35V21.5a1.32,1.32,0,0,0-.68-1.16l-2.75-1.52-2.76,1.52a1.32,1.32,0,0,0-.68,1.16v.4a.4.4,0,1,1-.8,0v-.4a2.13,2.13,0,0,1,1.12-1.88l3-1.64a.36.36,0,0,1,.4,0l3,1.64A2.11,2.11,0,0,1,48,21.5v.4A.55.55,0,0,1,47.52,22.3Z"/><path id="Path_15842" data-name="Path 15842" class="cls-1" d="M45.19,15.42c0,1.32-.88,2.8-1.95,2.8s-2-1.48-2-2.8a2,2,0,1,1,3.91,0Z"/><path id="Path_15845" data-name="Path 15845" class="cls-1" d="M30.11,24H22.4a.38.38,0,0,1-.4-.36v-2.4a2.14,2.14,0,0,1,1.12-1.88l2.95-1.63a.36.36,0,0,1,.4,0l3,1.63a2.14,2.14,0,0,1,1.12,1.88v2.36A.47.47,0,0,1,30.11,24Zm-7.31-.8h6.91v-2A1.34,1.34,0,0,0,29,20l-2.76-1.52L23.52,20a1.29,1.29,0,0,0-.68,1.16v2Z"/><path id="Path_15846" data-name="Path 15846" class="cls-2" d="M22.38,21.5v.4"/><path id="Path_15847" data-name="Path 15847" class="cls-1" d="M28.13,15.62c0,1.32-.88,2.8-2,2.8s-2-1.47-2-2.8a2,2,0,0,1,3.91,0Z"/><path id="Path_15849" data-name="Path 15849" class="cls-1" d="M40.16,20.42V23.9H29.57V20.42a2.36,2.36,0,0,1,2.36-2.28,3.53,3.53,0,0,0,5.91,0A2.34,2.34,0,0,1,40.16,20.42Z"/><path id="Path_15850" data-name="Path 15850" class="cls-1" d="M40.16,24.3H29.57a.38.38,0,0,1-.4-.36V20.42a2.77,2.77,0,0,1,2.72-2.68.42.42,0,0,1,.36.16,3.14,3.14,0,0,0,5.23,0,.41.41,0,0,1,.36-.16,2.77,2.77,0,0,1,2.72,2.68v3.47a.4.4,0,0,1-.35.41ZM30,23.5h9.79V20.42A2,2,0,0,0,38,18.54a3.89,3.89,0,0,1-6.23,0A1.94,1.94,0,0,0,30,20.42v3.07Z"/><path id="Path_15851" data-name="Path 15851" class="cls-1" d="M31,22.46v-2a.74.74,0,0,1,.4-.64,4.91,4.91,0,0,0,3.44,1.4,5,5,0,0,0,3.43-1.4.8.8,0,0,1,.4.64v2Z"/><path id="Path_15852" data-name="Path 15852" class="cls-1" d="M35,17.64c-1.76,0-3.24-1.8-3.24-4s1.44-4,3.24-4,3.24,1.8,3.24,4S36.71,17.64,35,17.64Zm0-7.12c-1.32,0-2.44,1.44-2.44,3.16s1.08,3.16,2.44,3.16,2.44-1.44,2.44-3.16S36.27,10.52,35,10.52Z"/><path id="Path_15853" data-name="Path 15853" class="cls-1" d="M38,11.51c-.16-1.32-2.72-2.44-4.91-1.4a1.91,1.91,0,0,0-1.24,1.4s-.88.56.32,3c0,0-.28-.6.6-1.24,0,0-.4-1.16.72-1.16a2.92,2.92,0,0,0,1.48.36,3.43,3.43,0,0,0,1.47-.36c1.12,0,.72,1.16.72,1.16.88.6.6,1.24.6,1.24C38.84,12.06,38,11.51,38,11.51Z"/><rect class="cls-3" width="70" height="34"/></g></g></svg>