<svg xmlns="http://www.w3.org/2000/svg" viewBox="0 0 70 34"><defs><style>.cls-1{opacity:0.68;}.cls-2,.cls-3{fill:#e4002b;}.cls-2{opacity:0.24;isolation:isolate;}.cls-4{fill:none;}</style></defs><g id="Layer_2" data-name="Layer 2"><g id="Layer_1-2" data-name="Layer 1"><g id="Group_2123" data-name="Group 2123"><g id="Group_2120" data-name="Group 2120" class="cls-1"><path id="Path_15824" data-name="Path 15824" class="cls-2" d="M43.43,8.77a11.79,11.79,0,1,0,3.45,8.33A11.77,11.77,0,0,0,43.43,8.77Zm2.39,7.8H41.24a20.63,20.63,0,0,0-.74-5.12,12,12,0,0,0,2.43-1.68,10.74,10.74,0,0,1,2.89,6.8ZM42.17,9a11.16,11.16,0,0,1-2,1.39A12.39,12.39,0,0,0,39.55,9,8.72,8.72,0,0,0,38,6.77,10.63,10.63,0,0,1,42.17,9Zm-6.55-2.5c1.1.24,2.14,1.26,3,2.91a11.17,11.17,0,0,1,.61,1.43,10.77,10.77,0,0,1-3.59.8Zm-1,0v5.15a10.82,10.82,0,0,1-3.59-.8,12,12,0,0,1,.61-1.43c.84-1.67,1.88-2.68,3-2.93Zm-2.37.23A8.36,8.36,0,0,0,30.65,9,15.31,15.31,0,0,0,30,10.43,11.36,11.36,0,0,1,28,9a10.7,10.7,0,0,1,4.17-2.27Zm-4.94,3a12.25,12.25,0,0,0,2.43,1.68A20.63,20.63,0,0,0,29,16.57H24.37a10.74,10.74,0,0,1,2.89-6.8Zm-2.89,7.86H29a20.43,20.43,0,0,0,.75,5.16,12.08,12.08,0,0,0-2.42,1.66,10.72,10.72,0,0,1-2.91-6.82ZM28,25.19a10.88,10.88,0,0,1,2-1.38,12.57,12.57,0,0,0,.62,1.41,8.36,8.36,0,0,0,1.55,2.22A10.68,10.68,0,0,1,28,25.19Zm6.53,2.48c-1.1-.24-2.14-1.26-3-2.91a13.1,13.1,0,0,1-.6-1.4,10.29,10.29,0,0,1,3.57-.8Zm.58-6.54a1.91,1.91,0,0,1-.58-.06v.43a11.37,11.37,0,0,0-3.9.85A19.27,19.27,0,0,1,30,17.63h.76v-.16a2.59,2.59,0,0,1,.09-.68,1.42,1.42,0,0,1,.07-.22H30a19,19,0,0,1,.65-4.68,12,12,0,0,0,3.9.85v.47l.54-.08a1.88,1.88,0,0,1,.53.06v-.44a11.85,11.85,0,0,0,3.9-.85,19.43,19.43,0,0,1,.66,4.68h-.69a1.84,1.84,0,0,1,.11.7v.06a2.64,2.64,0,0,1,0,.29h.6a19.27,19.27,0,0,1-.67,4.72,11.85,11.85,0,0,0-3.9-.85v-.43Zm.48,6.54V22.56a10.65,10.65,0,0,1,3.57.8,12.28,12.28,0,0,1-.6,1.4c-.83,1.65-1.87,2.67-3,2.91ZM38,27.44a8.53,8.53,0,0,0,1.55-2.22,11.9,11.9,0,0,0,.61-1.42,10.6,10.6,0,0,1,2,1.39A10.57,10.57,0,0,1,38,27.44Zm4.92-3a12.56,12.56,0,0,0-2.42-1.67,20.41,20.41,0,0,0,.75-5.15h4.57a10.67,10.67,0,0,1-2.9,6.82Z"/></g><g id="Group_2122" data-name="Group 2122"><g id="Group_2121" data-name="Group 2121"><path id="Path_15826" data-name="Path 15826" class="cls-2" d="M43.22,8.56a11.77,11.77,0,1,0,3.46,8.34A11.78,11.78,0,0,0,43.22,8.56Zm2.39,7.81H41a20.2,20.2,0,0,0-.75-5.13,11.65,11.65,0,0,0,2.43-1.67,10.72,10.72,0,0,1,2.89,6.8ZM42,8.83a10.67,10.67,0,0,1-2,1.39,10.77,10.77,0,0,0-.62-1.44,8.36,8.36,0,0,0-1.55-2.22A10.76,10.76,0,0,1,42,8.83Zm-6.54-2.5c1.1.25,2.14,1.26,3,2.92a12,12,0,0,1,.6,1.43,10.76,10.76,0,0,1-3.58.8Zm-1.06,0v5.15a10.76,10.76,0,0,1-3.58-.8,12,12,0,0,1,.6-1.43c.84-1.66,1.88-2.67,3-2.92ZM32,6.57a8.55,8.55,0,0,0-1.55,2.21,15.23,15.23,0,0,0-.62,1.44,10.22,10.22,0,0,1-2-1.39A10.76,10.76,0,0,1,32,6.56Zm-4.93,3a11.65,11.65,0,0,0,2.43,1.67,20.2,20.2,0,0,0-.75,5.13H24.17a10.71,10.71,0,0,1,2.88-6.8Zm-2.89,7.86h4.57a20.41,20.41,0,0,0,.75,5.15,11.73,11.73,0,0,0-2.42,1.67,10.7,10.7,0,0,1-2.9-6.82ZM27.84,25a11,11,0,0,1,2-1.38A11.9,11.9,0,0,0,30.44,25,9,9,0,0,0,32,27.24,10.9,10.9,0,0,1,27.83,25Zm6.52,2.49c-1.1-.25-2.14-1.26-3-2.92a11.56,11.56,0,0,1-.6-1.4,10.76,10.76,0,0,1,3.58-.8ZM35,20.93a2,2,0,0,1-.59-.07v.43a11.61,11.61,0,0,0-3.9.85,19.76,19.76,0,0,1-.67-4.71h.76v-.17a2.59,2.59,0,0,1,.09-.68c0-.07.05-.14.07-.21h-.92a19.43,19.43,0,0,1,.66-4.68,11.6,11.6,0,0,0,3.9.84V13l.53-.07a1.87,1.87,0,0,1,.53.05v-.44a11.85,11.85,0,0,0,3.9-.85A19.5,19.5,0,0,1,40,16.37h-.69a1.92,1.92,0,0,1,.11.71v.06c0,.09,0,.19,0,.29H40a19.26,19.26,0,0,1-.67,4.71,11.85,11.85,0,0,0-3.9-.85v-.42Zm.47,6.54V22.35a10.76,10.76,0,0,1,3.58.8,11.56,11.56,0,0,1-.6,1.4c-.84,1.66-1.88,2.67-3,2.92Zm2.37-.24A8.14,8.14,0,0,0,39.34,25,10.91,10.91,0,0,0,40,23.6,10.17,10.17,0,0,1,42,25a10.68,10.68,0,0,1-4.16,2.25Zm4.92-3a11.22,11.22,0,0,0-2.42-1.67,20.43,20.43,0,0,0,.76-5.15h4.57a10.76,10.76,0,0,1-2.91,6.82Z"/></g></g></g><g id="Group_2124" data-name="Group 2124"><path id="Path_15828" data-name="Path 15828" class="cls-3" d="M38.24,13.86a4.21,4.21,0,0,0-3-1.09A4.36,4.36,0,0,0,32.14,14a4.1,4.1,0,0,0-1.3,3.09,4.22,4.22,0,0,0,1.24,3.06,4.43,4.43,0,0,0,3.34,1.28,6.28,6.28,0,0,0,2.49-.52.54.54,0,0,0,.28-.69.53.53,0,0,0-.7-.28,5.28,5.28,0,0,1-2.07.45,3.17,3.17,0,0,1-2.5-1,3.38,3.38,0,0,1-.89-2.3,3.3,3.3,0,0,1,.95-2.4,3.14,3.14,0,0,1,2.33-1,3.07,3.07,0,0,1,2.14.79,2.6,2.6,0,0,1,.88,2,2.28,2.28,0,0,1-.4,1.36,1.11,1.11,0,0,1-.84.55c-.15,0-.23-.09-.23-.26a3.59,3.59,0,0,1,0-.47L37.22,15H36.09l-.07.26a1.45,1.45,0,0,0-1-.35,1.78,1.78,0,0,0-1.4.65,2.73,2.73,0,0,0-.07,3.28,1.58,1.58,0,0,0,1.25.62A1.4,1.4,0,0,0,36,18.94a1.11,1.11,0,0,0,1,.52,2.15,2.15,0,0,0,1.72-.86,3.18,3.18,0,0,0,.72-2.09,3.43,3.43,0,0,0-1.19-2.64Zm-2.6,4.07a.91.91,0,0,1-.72.4.52.52,0,0,1-.45-.3,1.38,1.38,0,0,1-.18-.74,1.46,1.46,0,0,1,.25-.88.71.71,0,0,1,1.15-.09.93.93,0,0,1,.25.67,1.54,1.54,0,0,1-.3.93Z"/></g><rect class="cls-4" width="70" height="34"/></g></g></svg>